<svg width="30" height="31" viewBox="0 0 30 31" fill="none" xmlns="http://www.w3.org/2000/svg">
<g clip-path="url(#clip0_3_75)">
<path d="M24.403 3.4855C23.6761 4.3373 23.3354 6.24534 24.0736 8.18744C24.8118 10.1295 25.9476 9.70932 26.6517 11.6855C27.583 14.2977 27.1514 17.8071 27.1514 17.8071C27.1514 17.8071 28.2758 21.0553 29.0595 17.6027C30.7971 11.1176 24.403 5.08689 24.403 3.4855Z" fill="url(#paint0_radial_3_75)"/>
<path d="M15.4988 30.4138C22.9833 30.4138 29.0368 24.3262 29.0368 16.8077C29.0368 9.2891 22.9719 3.21292 15.4988 3.21292C8.02568 3.21292 1.97221 9.30046 1.97221 16.8077C1.96086 24.3262 8.02568 30.4138 15.4988 30.4138Z" fill="url(#paint1_radial_3_75)"/>
<path d="M25.6409 25.2007C25.3456 25.4052 25.039 25.5869 24.721 25.7572C25.1412 25.1326 25.5387 24.4966 25.8908 23.8379C26.1747 23.5199 26.4473 23.2132 26.6631 22.8725C26.7653 22.7021 26.8902 22.509 27.0151 22.2705C27.7761 20.8963 28.6165 18.6816 28.6392 16.4102V16.2398C28.6392 15.6719 28.5825 15.0927 28.4689 14.5362C28.4802 14.5816 28.4802 14.6271 28.4916 14.6725C28.4802 14.6384 28.4802 14.6043 28.4689 14.5703C28.4802 14.6271 28.4916 14.6952 28.503 14.752C28.662 16.0694 28.5484 17.3528 27.9919 18.3068C27.9805 18.3182 27.9692 18.3295 27.9692 18.3523C28.2531 16.9099 28.3553 15.3199 28.0373 13.7298C28.0373 13.7298 27.9124 12.9575 26.9584 10.6066C26.4132 9.25504 25.4365 8.14202 24.5847 7.33565C23.8351 6.40435 23.1423 5.77969 22.7675 5.38219C21.9838 4.5531 21.6545 3.92845 21.5182 3.53094C21.4046 3.47415 19.8941 2.00906 19.7805 1.95227C19.1218 2.97443 17.0661 6.15448 18.0428 9.11875C18.4858 10.4703 19.6102 11.8672 20.7913 12.6509C20.8481 12.7077 21.4955 13.4118 21.8021 15.0018C22.1201 16.6487 21.9498 17.9207 21.3024 19.8174C20.5301 21.4755 18.5539 23.1223 16.7027 23.2927C12.7503 23.6561 11.2966 21.3052 11.2966 21.3052C12.7049 21.873 14.2722 21.7481 15.2262 21.1689C16.1802 20.5783 16.7595 20.1354 17.2365 20.3057C17.7021 20.4761 18.0656 19.9764 17.7362 19.4539C17.2138 18.6476 16.2597 18.2387 15.3171 18.3977C14.3631 18.5567 13.4772 19.3176 12.2279 18.5794C12.1484 18.534 12.0689 18.4772 11.9894 18.4204C11.9099 18.3636 12.262 18.4999 12.1711 18.4431C11.9326 18.3068 11.4897 18.0229 11.3874 17.9207C11.3647 17.898 11.5805 17.9888 11.5578 17.9661C10.388 17.0007 10.5356 16.342 10.5697 15.9332C10.6038 15.6038 10.8082 15.1836 11.1716 15.0132C11.342 15.1041 11.4556 15.1836 11.4556 15.1836C11.4556 15.1836 11.3761 15.0359 11.342 14.9564C11.3534 14.9451 11.3647 14.9564 11.3874 14.9451C11.5351 15.0132 11.8417 15.1949 12.0121 15.2971C12.2279 15.4448 12.296 15.5811 12.296 15.5811C12.296 15.5811 12.3528 15.547 12.3074 15.4221C12.296 15.3653 12.2279 15.1949 12.0121 15.0246H12.0234C12.1484 15.0927 12.2733 15.1836 12.3869 15.2744C12.4437 15.0586 12.5572 14.8315 12.5345 14.4226C12.5232 14.1387 12.5232 14.0592 12.4777 13.9456C12.4323 13.8548 12.5005 13.8093 12.58 13.9115C12.5686 13.832 12.5459 13.7525 12.5118 13.6844V13.673C12.614 13.3323 14.5902 12.4351 14.7379 12.3329C14.9764 12.1625 15.1694 11.9467 15.3171 11.6969C15.4307 11.5265 15.5102 11.2766 15.5329 10.9019C15.5442 10.6293 15.4193 10.4476 13.409 10.2431C12.8639 10.1863 12.5345 9.78883 12.3528 9.4254C12.3187 9.3459 12.2847 9.27775 12.2506 9.19825C12.2165 9.11875 12.1938 9.02789 12.1711 8.93703C12.5005 7.99437 13.0456 7.19936 13.8633 6.59742C13.9088 6.55199 13.6816 6.60878 13.727 6.56335C13.7838 6.51792 14.1132 6.38163 14.1813 6.34756C14.2608 6.31349 13.852 6.13177 13.4885 6.1772C13.1251 6.22263 13.0456 6.26806 12.8412 6.34756C12.9207 6.26806 13.1819 6.15448 13.1251 6.16584C12.7276 6.22263 12.2392 6.46113 11.819 6.72235C11.819 6.67692 11.8304 6.63149 11.8417 6.58606C11.6487 6.66557 11.1603 7.00628 11.024 7.29022C11.0354 7.23343 11.0354 7.17664 11.0354 7.11986C10.8877 7.24479 10.7514 7.38108 10.6379 7.54008L10.5697 7.56279C9.43398 7.1085 8.42317 7.07443 7.58273 7.27886C7.40101 7.09714 7.31015 7.23343 6.87857 6.30213C6.8445 6.24534 6.90129 6.35892 6.87857 6.30213C6.81043 6.12041 6.924 6.54063 6.87857 6.30213C6.17442 6.87 5.24312 7.50601 4.78882 7.94894C4.78882 7.97166 5.31126 7.8013 4.78882 7.94894C4.60711 8.00573 4.61846 8.10795 4.59575 9.09604C4.58439 9.17554 4.59575 9.25504 4.58439 9.32318C4.22096 9.77747 3.98245 10.1636 3.89159 10.3681C3.42594 11.1631 2.91486 12.4124 2.4265 14.3772C2.64229 13.8434 2.9035 13.3323 3.21015 12.844C2.80129 13.8888 2.40378 15.5356 2.32428 18.057C2.4265 17.5345 2.55143 17.0235 2.71043 16.5124C2.60821 18.6135 2.97165 20.7032 3.76666 22.6453C4.0506 23.3381 4.51625 24.3944 5.32262 25.5528C7.84395 28.1991 11.3874 29.8459 15.3171 29.8459C19.4171 29.8459 23.1082 28.0514 25.6409 25.2007Z" fill="url(#paint2_linear_3_75)"/>
<path d="M22.5971 27.1201C27.5603 26.5409 29.7636 21.4301 26.9357 21.3279C24.3916 21.2484 20.2462 27.3927 22.5971 27.1201Z" fill="url(#paint3_radial_3_75)"/>
<path d="M27.2991 20.283C30.7176 18.2954 29.8204 14.0024 29.8204 14.0024C29.8204 14.0024 28.5029 15.5356 27.6057 17.9774C26.7312 20.3966 25.2434 21.4869 27.2991 20.283Z" fill="url(#paint4_radial_3_75)"/>
<path d="M16.4528 29.6641C21.2229 31.186 25.3115 27.4268 22.7902 26.1774C20.496 25.0531 14.1927 28.9486 16.4528 29.6641Z" fill="url(#paint5_radial_3_75)"/>
<path d="M27.6625 22.1115C27.7761 21.9525 27.9351 21.4301 28.0714 21.1916C28.9118 19.8287 28.9232 18.7498 28.9232 18.727C29.4343 16.1944 29.3888 15.1495 29.0708 13.2414C28.821 11.6968 27.7193 9.48217 26.7653 8.42593C25.7886 7.32427 26.47 7.68771 25.5273 6.88134C24.6983 5.96139 23.8805 5.04145 23.4489 4.67801C20.2689 2.02039 20.337 1.45253 20.4052 1.36167C20.3938 1.37303 20.3825 1.38438 20.3597 1.4071C20.3257 1.25945 20.2916 1.13452 20.2916 1.13452C20.2916 1.13452 18.5426 2.86084 18.1791 5.75696C17.9406 7.64228 18.6448 9.61845 19.6783 10.8791C20.2121 11.5378 20.814 12.1284 21.4728 12.6509C22.2451 13.7639 22.6766 15.1381 22.6766 16.6146C22.6766 20.3171 19.6783 23.3041 15.9758 23.3041C15.4761 23.3041 14.965 23.2473 14.4766 23.1337C12.7276 22.8043 11.7282 21.9185 11.2171 21.3165C10.9332 20.9758 10.8082 20.7259 10.8082 20.7259C12.3755 21.2824 14.1019 21.1689 15.1581 20.5896C16.2143 19.9991 16.8617 19.5675 17.3841 19.7378C17.8952 19.9082 18.3041 19.4085 17.9406 18.8974C17.5772 18.3863 16.6459 17.6481 15.2603 17.8525C14.2041 18.0115 13.2273 18.7611 11.8417 18.0342C11.7509 17.9888 11.66 17.932 11.5805 17.8866C11.4897 17.8298 11.8758 17.9661 11.785 17.9093C11.5124 17.773 11.0354 17.4891 10.9104 17.3869C10.8877 17.3642 11.1149 17.455 11.1035 17.4323C9.80878 16.4783 9.96778 15.8309 10.0019 15.4221C10.0359 15.0927 10.2744 14.6838 10.6719 14.5135C10.865 14.6043 10.9786 14.6838 10.9786 14.6838C10.9786 14.6838 10.8991 14.5362 10.8537 14.4567C10.865 14.4453 10.8877 14.4567 10.8991 14.4453C11.0581 14.5135 11.4102 14.6838 11.5919 14.7974C11.8304 14.945 11.9099 15.0813 11.9099 15.0813C11.9099 15.0813 11.978 15.0473 11.9212 14.9223C11.8985 14.8655 11.8304 14.6952 11.5919 14.5248H11.6032C11.7395 14.593 11.8758 14.6838 12.0007 14.7747C12.0689 14.5589 12.1825 14.3317 12.1597 13.9229C12.1484 13.639 12.1484 13.5595 12.0916 13.4572C12.0462 13.3664 12.1143 13.3209 12.2052 13.4232C12.1938 13.3437 12.1597 13.2755 12.1257 13.196V13.1847C12.2392 12.8439 14.4312 11.9581 14.5902 11.8559C14.8514 11.6968 15.0672 11.4811 15.2376 11.2312C15.3625 11.0608 15.4534 10.811 15.4761 10.4362C15.4874 10.2658 15.4307 10.1409 14.8514 10.0046C14.4994 9.9251 13.9656 9.85696 13.1251 9.77746C12.5232 9.72067 12.1597 9.33452 11.9553 8.97109C11.9212 8.89158 11.8758 8.82344 11.8417 8.7553C11.8077 8.67579 11.7736 8.58494 11.7509 8.50543C12.1143 7.55142 12.773 6.74505 13.6248 6.18854C13.6703 6.14311 13.4318 6.19989 13.4772 6.15447C13.534 6.10904 13.9088 5.97275 13.9769 5.93868C14.0678 5.9046 13.6135 5.73424 13.2046 5.76832C12.7958 5.81375 12.7163 5.84782 12.4891 5.93868C12.58 5.85917 12.8639 5.75696 12.7958 5.75696C12.3869 5.80239 11.8417 6.02953 11.3761 6.29075C11.3761 6.24532 11.3874 6.19989 11.3988 6.15447C11.183 6.23397 10.6492 6.57469 10.4902 6.85862C10.5016 6.80183 10.5016 6.74505 10.5016 6.69962C10.3426 6.82455 10.1836 6.96084 10.0586 7.11984L10.0473 7.1312C8.78662 6.6769 7.6736 6.64283 6.7423 6.84726C6.53786 6.66555 6.2085 6.38161 5.74285 5.46167C5.70878 5.40488 5.69742 5.57524 5.67471 5.51845C5.49299 5.09823 5.37942 4.40544 5.40213 3.92843C5.40213 3.92843 5.02734 4.09879 4.72069 4.8143C4.6639 4.93923 4.62983 5.01873 4.5844 5.08688C4.56169 5.10959 4.61847 4.84837 4.61847 4.87109C4.56169 4.96194 4.4254 5.08688 4.36861 5.25724C4.32318 5.38217 4.2664 5.45031 4.23232 5.59796L4.22097 5.60931C4.22097 5.56388 4.23232 5.4276 4.22097 5.45031C4.07332 5.7456 3.94839 6.05225 3.84617 6.3589C3.67581 6.90405 3.48274 7.65363 3.44867 8.63037C3.43731 8.69851 3.44867 8.78937 3.43731 8.85751C3.0398 9.31181 2.76723 9.69796 2.66501 9.89103C2.15393 10.686 1.58606 11.9126 1.04091 13.8661C1.27942 13.3323 1.57471 12.8212 1.91543 12.3442C1.46113 13.3777 1.0182 15.0132 0.927338 17.5118C1.04091 16.9894 1.1772 16.4783 1.34756 15.9786C1.26806 17.6481 1.46113 19.7265 2.51737 22.0661C3.14202 23.4403 4.5844 26.2342 8.11653 28.4149C8.11653 28.4149 9.32041 29.3121 11.3761 29.9822C11.5237 30.0389 11.6827 30.0957 11.8417 30.1412C11.7963 30.1185 11.7395 30.0957 11.6941 30.0844C13.0683 30.4932 14.488 30.709 15.9304 30.709C21.2683 30.709 22.847 28.5625 22.847 28.5625L22.8356 28.5739C22.9151 28.5057 22.9833 28.4262 23.0514 28.3581C22.211 29.1531 20.2802 29.2099 19.5647 29.1531C20.7913 28.7896 21.5977 28.483 23.165 27.8924C23.3467 27.8243 23.5398 27.7448 23.7329 27.6539L23.7897 27.6198C23.8237 27.5971 23.8692 27.5858 23.9032 27.5631C24.6642 27.1996 25.3911 26.7567 26.0498 26.2229C27.6284 24.9622 27.9692 23.7356 28.1509 22.9293C28.1282 23.0088 28.0487 23.1905 27.9919 23.3041C27.583 24.1672 26.6858 24.7124 25.7091 25.1667C26.1747 24.5534 26.6063 23.9173 27.0038 23.2586C27.3218 22.9406 27.4127 22.4409 27.6625 22.1115Z" fill="url(#paint6_radial_3_75)"/>
<path d="M25.7431 25.1212C26.3905 24.4171 26.9584 23.5993 27.4013 22.6794C28.5257 20.3171 30.2633 16.3761 28.9005 12.2761C27.8215 9.02788 26.3337 7.25613 24.4484 5.51846C21.3819 2.70184 20.5301 1.44117 20.5301 0.691589C20.5301 0.691589 16.9866 4.63259 18.5199 8.7553C20.0531 12.878 23.1991 12.719 25.2775 17.0121C27.7306 22.0661 23.3013 27.5858 19.6329 29.1304C19.86 29.0849 27.7761 27.2905 28.1963 22.7589C28.1736 22.8384 27.9919 24.0991 25.7431 25.1212Z" fill="url(#paint7_radial_3_75)"/>
<path d="M15.4761 10.4362C15.4874 10.1636 15.3512 9.99325 13.1365 9.77746C12.2279 9.69796 11.8758 8.85751 11.7736 8.49408C11.4556 9.33452 11.3193 10.2204 11.3874 11.288C11.4329 11.9921 11.9099 12.7417 12.1257 13.1733C12.1257 13.1733 12.1711 13.1052 12.1938 13.0824C12.614 12.6395 14.3858 11.9694 14.5561 11.8786C14.7492 11.765 15.4534 11.2539 15.4761 10.4362Z" fill="url(#paint8_linear_3_75)"/>
<path d="M5.74285 5.46168C5.70878 5.40489 5.69742 5.57525 5.67471 5.51846C5.49299 5.09824 5.37942 4.4168 5.41349 3.92844C5.41349 3.92844 5.0387 4.0988 4.73205 4.81431C4.67526 4.93924 4.64119 5.01874 4.59576 5.08689C4.57305 5.1096 4.62983 4.84838 4.62983 4.8711C4.57305 4.96195 4.43676 5.08688 4.37997 5.24589C4.33454 5.37082 4.27776 5.45032 4.24368 5.60932C4.23233 5.65475 4.25504 5.41625 4.24368 5.45032C3.51681 6.84727 3.38053 8.95974 3.46003 8.86888C5.00463 7.22207 6.76501 6.83592 6.76501 6.83592C6.54922 6.69963 6.14036 6.29076 5.74285 5.46168Z" fill="url(#paint9_linear_3_75)"/>
<path d="M11.5805 22.6567C9.45672 21.7481 7.0376 20.4647 7.12846 17.5572C7.25339 13.7298 10.706 14.4794 10.706 14.4794C10.5811 14.5135 10.229 14.7633 10.1041 15.0245C9.97915 15.3539 9.74065 16.1035 10.4562 16.8871C11.5919 18.1137 8.12791 19.7946 13.4659 22.9747C13.6021 23.0428 12.2165 22.9293 11.5805 22.6567Z" fill="url(#paint10_linear_3_75)"/>
<path d="M10.8309 20.7486C12.3415 21.2711 14.0905 21.1802 15.1467 20.601C15.8509 20.2035 16.7595 19.5788 17.3046 19.7378C16.8276 19.5448 16.4642 19.4539 16.0212 19.4425C15.9417 19.4425 15.8622 19.4425 15.7827 19.4312C15.6237 19.4312 15.4647 19.4425 15.3057 19.4539C15.0331 19.4766 14.7379 19.647 14.4653 19.6243C14.4539 19.6243 14.7265 19.5107 14.7038 19.5107C14.5561 19.5448 14.3971 19.5448 14.2381 19.5675C14.1359 19.5788 14.0451 19.5902 13.9315 19.6015C10.7855 19.8628 8.13924 17.8979 8.13924 17.8979C7.9121 18.6475 9.15005 20.1581 10.8309 20.7486Z" fill="url(#paint11_linear_3_75)"/>
<path d="M25.7318 25.144C28.9118 22.0207 30.5132 18.2387 29.8318 13.9797C29.8318 13.9797 30.1043 16.1603 29.0708 18.3863C29.5706 16.2057 29.6273 13.5027 28.3099 10.6974C26.5609 6.96085 23.6761 4.98467 22.5744 4.16694C20.9049 2.91764 20.2121 1.65697 20.2007 1.39575C19.701 2.41791 18.1905 5.91597 20.0417 8.92567C21.7681 11.7536 24.4938 12.5827 26.3905 15.1722C29.9113 19.9536 25.7318 25.144 25.7318 25.144Z" fill="url(#paint12_linear_3_75)"/>
<path d="M25.2775 17.0235C24.1645 14.7293 22.7789 13.7298 21.4728 12.6509C21.6204 12.8667 21.6658 12.9348 21.7453 13.0825C22.9038 14.3091 24.596 17.3074 23.3694 21.078C21.0412 28.165 11.7509 24.8259 10.7741 23.8946C11.1716 27.9946 18.0315 29.9595 22.5063 27.3018C25.039 24.8714 27.0946 20.7827 25.2775 17.0235Z" fill="url(#paint13_linear_3_75)"/>
</g>
<defs>
<radialGradient id="paint0_radial_3_75" cx="0" cy="0" r="1" gradientUnits="userSpaceOnUse" gradientTransform="translate(29.4497 9.96038) rotate(2.26042) scale(10.4589 15.4158)">
<stop offset="0.1" stop-color="#FFEA00"/>
<stop offset="0.17" stop-color="#FFDE00"/>
<stop offset="0.28" stop-color="#FFBF00"/>
<stop offset="0.43" stop-color="#FF8E00"/>
<stop offset="0.77" stop-color="#FF272D"/>
<stop offset="0.87" stop-color="#E0255A"/>
<stop offset="0.95" stop-color="#CC2477"/>
<stop offset="1" stop-color="#C42482"/>
</radialGradient>
<radialGradient id="paint1_radial_3_75" cx="0" cy="0" r="1" gradientUnits="userSpaceOnUse" gradientTransform="translate(19.9519 5.33401) scale(29.681 29.681)">
<stop stop-color="#00CCDA"/>
<stop offset="0.22" stop-color="#0083FF"/>
<stop offset="0.26" stop-color="#007AF9"/>
<stop offset="0.33" stop-color="#005FE7"/>
<stop offset="0.44" stop-color="#2639AD"/>
<stop offset="0.52" stop-color="#401E84"/>
<stop offset="0.57" stop-color="#4A1475"/>
</radialGradient>
<linearGradient id="paint2_linear_3_75" x1="17.4117" y1="22.9276" x2="11.5733" y2="3.8295" gradientUnits="userSpaceOnUse">
<stop stop-color="#000F43" stop-opacity="0.4"/>
<stop offset="0.48" stop-color="#001962" stop-opacity="0.17"/>
<stop offset="1" stop-color="#002079" stop-opacity="0"/>
</linearGradient>
<radialGradient id="paint3_radial_3_75" cx="0" cy="0" r="1" gradientUnits="userSpaceOnUse" gradientTransform="translate(30.3662 20.6597) rotate(5.6174) scale(9.9777 9.97766)">
<stop stop-color="#FFEA00"/>
<stop offset="0.5" stop-color="#FF272D"/>
<stop offset="1" stop-color="#C42482"/>
</radialGradient>
<radialGradient id="paint4_radial_3_75" cx="0" cy="0" r="1" gradientUnits="userSpaceOnUse" gradientTransform="translate(30.4042 11.05) rotate(5.61742) scale(16.6617 16.6617)">
<stop stop-color="#FFE900"/>
<stop offset="0.16" stop-color="#FFAF0E"/>
<stop offset="0.32" stop-color="#FF7A1B"/>
<stop offset="0.47" stop-color="#FF4E26"/>
<stop offset="0.62" stop-color="#FF2C2E"/>
<stop offset="0.76" stop-color="#FF1434"/>
<stop offset="0.89" stop-color="#FF0538"/>
<stop offset="1" stop-color="#FF0039"/>
</radialGradient>
<radialGradient id="paint5_radial_3_75" cx="0" cy="0" r="1" gradientUnits="userSpaceOnUse" gradientTransform="translate(31.2378 26.6518) rotate(5.61742) scale(15.289 15.289)">
<stop stop-color="#FF272D"/>
<stop offset="0.5" stop-color="#C42482"/>
<stop offset="0.99" stop-color="#620700"/>
</radialGradient>
<radialGradient id="paint6_radial_3_75" cx="0" cy="0" r="1" gradientUnits="userSpaceOnUse" gradientTransform="translate(22.7275 12.7084) scale(23.8545 23.8545)">
<stop offset="0.16" stop-color="#FFEA00"/>
<stop offset="0.23" stop-color="#FFDE00"/>
<stop offset="0.37" stop-color="#FFBF00"/>
<stop offset="0.54" stop-color="#FF8E00"/>
<stop offset="0.76" stop-color="#FF272D"/>
<stop offset="0.8" stop-color="#F92433"/>
<stop offset="0.84" stop-color="#E91C45"/>
<stop offset="0.89" stop-color="#CF0E62"/>
<stop offset="0.94" stop-color="#B5007F"/>
</radialGradient>
<radialGradient id="paint7_radial_3_75" cx="0" cy="0" r="1" gradientUnits="userSpaceOnUse" gradientTransform="translate(21.3597 1.64546) scale(27.187 27.187)">
<stop offset="0.28" stop-color="#FFEA00"/>
<stop offset="0.4" stop-color="#FFDD00"/>
<stop offset="0.63" stop-color="#FFBA00"/>
<stop offset="0.86" stop-color="#FF9100"/>
<stop offset="0.93" stop-color="#FF6711"/>
<stop offset="0.99" stop-color="#FF4A1D"/>
</radialGradient>
<linearGradient id="paint8_linear_3_75" x1="5.44702" y1="11.8267" x2="17.157" y2="10.0386" gradientUnits="userSpaceOnUse">
<stop stop-color="#C42482" stop-opacity="0.5"/>
<stop offset="0.47" stop-color="#FF272D" stop-opacity="0.5"/>
<stop offset="0.49" stop-color="#FF2C2C" stop-opacity="0.51"/>
<stop offset="0.68" stop-color="#FF7A1A" stop-opacity="0.72"/>
<stop offset="0.83" stop-color="#FFB20D" stop-opacity="0.87"/>
<stop offset="0.94" stop-color="#FFD605" stop-opacity="0.96"/>
<stop offset="1" stop-color="#FFE302"/>
</linearGradient>
<linearGradient id="paint9_linear_3_75" x1="5.3589" y1="8.75599" x2="4.13783" y2="4.36722" gradientUnits="userSpaceOnUse">
<stop stop-color="#891551" stop-opacity="0.6"/>
<stop offset="1" stop-color="#C42482" stop-opacity="0"/>
</linearGradient>
<linearGradient id="paint10_linear_3_75" x1="7.58796" y1="14.9231" x2="10.1034" y2="18.4371" gradientUnits="userSpaceOnUse">
<stop offset="0.01" stop-color="#891551" stop-opacity="0.5"/>
<stop offset="0.48" stop-color="#FF272D" stop-opacity="0.5"/>
<stop offset="1" stop-color="#FF272D" stop-opacity="0"/>
</linearGradient>
<linearGradient id="paint11_linear_3_75" x1="12.4897" y1="21.0407" x2="12.7199" y2="18.7831" gradientUnits="userSpaceOnUse">
<stop stop-color="#C42482"/>
<stop offset="0.08" stop-color="#C42482" stop-opacity="0.81"/>
<stop offset="0.21" stop-color="#C42482" stop-opacity="0.57"/>
<stop offset="0.33" stop-color="#C42482" stop-opacity="0.36"/>
<stop offset="0.45" stop-color="#C42482" stop-opacity="0.2"/>
<stop offset="0.56" stop-color="#C42482" stop-opacity="0.09"/>
<stop offset="0.67" stop-color="#C42482" stop-opacity="0.02"/>
<stop offset="0.77" stop-color="#C42482" stop-opacity="0"/>
</linearGradient>
<linearGradient id="paint12_linear_3_75" x1="19.8363" y1="1.79482" x2="29.158" y2="22.6392" gradientUnits="userSpaceOnUse">
<stop stop-color="#FFF14F"/>
<stop offset="0.27" stop-color="#FFEE4C"/>
<stop offset="0.45" stop-color="#FFE643"/>
<stop offset="0.61" stop-color="#FFD834"/>
<stop offset="0.76" stop-color="#FFC41E"/>
<stop offset="0.89" stop-color="#FFAB02"/>
<stop offset="0.9" stop-color="#FFA900"/>
<stop offset="0.95" stop-color="#FFA000"/>
<stop offset="1" stop-color="#FF9100"/>
</linearGradient>
<linearGradient id="paint13_linear_3_75" x1="21.6872" y1="13.7836" x2="17.2718" y2="25.6393" gradientUnits="userSpaceOnUse">
<stop stop-color="#FF8E00"/>
<stop offset="0.04" stop-color="#FF8E00" stop-opacity="0.86"/>
<stop offset="0.08" stop-color="#FF8E00" stop-opacity="0.73"/>
<stop offset="0.13" stop-color="#FF8E00" stop-opacity="0.63"/>
<stop offset="0.18" stop-color="#FF8E00" stop-opacity="0.56"/>
<stop offset="0.23" stop-color="#FF8E00" stop-opacity="0.51"/>
<stop offset="0.28" stop-color="#FF8E00" stop-opacity="0.5"/>
<stop offset="0.39" stop-color="#FF8E00" stop-opacity="0.48"/>
<stop offset="0.52" stop-color="#FF8E00" stop-opacity="0.42"/>
<stop offset="0.68" stop-color="#FF8E00" stop-opacity="0.31"/>
<stop offset="0.84" stop-color="#FF8E00" stop-opacity="0.17"/>
<stop offset="1" stop-color="#FF8E00" stop-opacity="0"/>
</linearGradient>
<clipPath id="clip0_3_75">
<rect width="29.0748" height="30.097" fill="white" transform="translate(0.915985 0.691589)"/>
</clipPath>
</defs>
</svg>
