<svg width="30" height="41" viewBox="0 0 30 41" fill="none" xmlns="http://www.w3.org/2000/svg">
<g clip-path="url(#clip0_3_67)">
<path d="M14.9776 40.8964L3.14532 37.6117L0.508545 8.03711H29.4822L26.8426 37.6071L14.9776 40.8964Z" fill="#264DE4"/>
<path d="M24.5829 35.7241L26.8385 10.4553H14.9954V38.3822L24.5829 35.7241Z" fill="#2965F1"/>
<path d="M6.55328 21.424L6.87838 25.0512H14.9954V21.424H6.55328Z" fill="#EBEBEB"/>
<path d="M5.90009 14.0825L6.22981 17.7098H14.9954V14.0825H5.90009Z" fill="#EBEBEB"/>
<path d="M14.9954 30.8443L14.9795 30.8485L10.9398 29.7578L10.6816 26.8649H7.04047L7.54864 32.5601L14.9787 34.6227L14.9954 34.6181V30.8443Z" fill="#EBEBEB"/>
<path d="M23.4142 21.4241L24.069 14.0825H14.9828V17.7098H20.0939L19.7639 21.4241H14.9828V25.0512H19.4493L19.0283 29.7554L14.9828 30.8473V34.621L22.4188 32.5601L22.4734 31.9473L23.3257 22.3981L23.4142 21.4241Z" fill="white"/>
</g>
<defs>
<clipPath id="clip0_3_67">
<rect width="29.0748" height="41" fill="white" transform="translate(0.458008)"/>
</clipPath>
</defs>
</svg>
