<svg width="30" height="25" viewBox="0 0 30 25" fill="none" xmlns="http://www.w3.org/2000/svg">
<g clip-path="url(#clip0_3_91)">
<path d="M29.3389 0.629913H1.39984C1.08621 0.629913 0.83197 0.884156 0.83197 1.19778V23.8378C0.83197 24.1514 1.08621 24.4056 1.39984 24.4056H29.3389C29.6525 24.4056 29.9068 24.1514 29.9068 23.8378V1.19778C29.9068 0.884156 29.6525 0.629913 29.3389 0.629913Z" fill="white"/>
<path d="M4.03944 3.10283C3.94224 3.00563 3.82495 2.95703 3.68757 2.95703C3.55019 2.95703 3.43243 3.0061 3.3343 3.10423C3.23757 3.20096 3.18851 3.31871 3.18851 3.4561C3.18851 3.59348 3.23757 3.71124 3.3343 3.80797L4.86094 5.3346L3.3357 6.85984C3.23757 6.95797 3.18851 7.07573 3.1871 7.21311C3.18851 7.3505 3.23757 7.46825 3.3343 7.56498C3.43243 7.66171 3.55019 7.71078 3.68617 7.71218C3.82495 7.71218 3.94271 7.66311 4.04084 7.56498L5.73711 5.86732C6.09318 5.51264 6.09318 5.15657 5.73711 4.80049L4.03944 3.10283ZM10.6885 6.86264C10.5904 6.76451 10.4712 6.71545 10.3324 6.71545V6.71475H7.05767V6.71545C6.91888 6.71545 6.80113 6.76451 6.70299 6.86264C6.60486 6.96078 6.5558 7.07853 6.5558 7.21732C6.5558 7.3561 6.60486 7.47526 6.70299 7.57339C6.80113 7.67152 6.91888 7.72059 7.05767 7.72059V7.71989H10.3324V7.72059C10.4712 7.72059 10.5904 7.67152 10.6885 7.57339C10.7866 7.47526 10.8357 7.3561 10.8357 7.21732C10.8357 7.07853 10.7866 6.96078 10.6885 6.86264Z" fill="black"/>
</g>
<defs>
<clipPath id="clip0_3_91">
<rect width="29.0748" height="23.8504" fill="white" transform="translate(0.83197 0.629913)"/>
</clipPath>
</defs>
</svg>
