<svg width="30" height="30" viewBox="0 0 30 30" fill="none" xmlns="http://www.w3.org/2000/svg">
<g clip-path="url(#clip0_3_104)">
<path d="M15.2853 0.691589C7.25888 0.691589 0.747925 7.20255 0.747925 15.229C0.747925 23.2554 7.25888 29.7664 15.2853 29.7664C23.3118 29.7664 29.8227 23.2554 29.8227 15.229C29.8227 7.20255 23.3118 0.691589 15.2853 0.691589Z" fill="#368FB9"/>
<path d="M23.8394 20.4602C22.9413 20.6735 22.4867 20.8699 21.3753 21.594C19.6409 22.7166 17.7438 23.2386 17.7438 23.2386C17.7438 23.2386 17.5866 23.4743 17.132 23.581C16.3462 23.7718 13.3882 23.9346 13.1188 23.9402C12.3947 23.9458 11.9513 23.755 11.8278 23.4575C11.4517 22.5594 12.3666 22.1665 12.3666 22.1665C12.3666 22.1665 12.1646 22.043 12.0467 21.9308C11.94 21.8241 11.8278 21.6108 11.7941 21.6894C11.6538 22.0318 11.5808 22.8681 11.2048 23.2442C10.6884 23.7662 9.71172 23.5922 9.13359 23.2891C8.49934 22.9523 9.1785 22.1609 9.1785 22.1609C9.1785 22.1609 8.83611 22.363 8.56108 21.9476C8.31411 21.5659 8.08398 20.9148 8.14572 20.1122C8.21308 19.1973 9.23463 18.3105 9.23463 18.3105C9.23463 18.3105 9.05501 16.9578 9.64437 15.5714C10.1776 14.3085 11.6145 13.2925 11.6145 13.2925C11.6145 13.2925 10.4077 11.9567 10.8568 10.7555C11.1486 9.9697 11.2665 9.97531 11.3619 9.94163C11.6987 9.81254 12.0242 9.67222 12.2656 9.40841C13.4724 8.10622 15.0103 8.35318 15.0103 8.35318C15.0103 8.35318 15.74 6.13609 16.4135 6.56828C16.6212 6.70299 17.3677 8.36441 17.3677 8.36441C17.3677 8.36441 18.1647 7.89854 18.2546 8.07254C18.7373 9.00989 18.7934 10.8004 18.5801 11.8893C18.2209 13.6854 17.3228 14.6509 16.9636 15.257C16.8794 15.3974 17.929 15.8408 18.5913 17.6762C19.2031 19.3545 18.6587 20.7633 18.7541 20.9205C18.7709 20.9485 18.7766 20.9597 18.7766 20.9597C18.7766 20.9597 19.4782 21.0159 20.887 20.1459C21.6391 19.68 22.5316 19.158 23.5475 19.1468C24.5298 19.1299 24.5803 20.2806 23.8394 20.4602ZM25.1753 19.6351C25.0742 18.8381 24.4007 18.288 23.5363 18.2992C22.2453 18.3161 21.162 18.984 20.4436 19.4274C20.1629 19.6014 19.9216 19.7305 19.7139 19.8259C19.7588 19.1748 19.7195 18.3217 19.3827 17.3843C18.973 16.2618 18.4229 15.5714 18.03 15.1729C18.4847 14.5105 19.1077 13.5451 19.3996 12.0521C19.6522 10.778 19.5736 8.7966 18.9955 7.68525C18.8776 7.46073 18.6811 7.29796 18.4342 7.23061C18.3331 7.20254 18.1423 7.14641 17.7662 7.25306C17.1993 6.07996 17.0029 5.95648 16.8513 5.85545C16.537 5.65338 16.1666 5.60848 15.8186 5.73758C15.3527 5.90596 14.9542 6.35499 14.5781 7.15203C14.522 7.2699 14.4715 7.38215 14.4266 7.49441C13.7137 7.54493 12.5911 7.80312 11.6426 8.83028C11.5247 8.95938 11.2946 9.0548 11.0532 9.1446H11.0588C10.5649 9.3186 10.3404 9.72273 10.0653 10.4524C9.68366 11.474 10.0766 12.4787 10.4639 13.1298C9.93624 13.6012 9.23463 14.3534 8.86418 15.2346C8.40392 16.3235 8.3534 17.3899 8.37024 17.9681C7.97734 18.3834 7.37115 19.1636 7.30379 20.0392C7.21398 21.2628 7.6574 22.0936 7.85385 22.3967C7.90998 22.4865 7.97173 22.5594 8.03908 22.6324C8.01663 22.7839 8.01101 22.9467 8.04469 23.1151C8.11766 23.508 8.36463 23.8279 8.74069 24.03C9.48159 24.4229 10.5144 24.5913 11.3114 24.1928C11.5977 24.4959 12.1197 24.7877 13.0682 24.7877H13.1244C13.3657 24.7877 16.4304 24.625 17.3228 24.4061C17.7213 24.3106 17.9964 24.1423 18.176 23.9907C18.7485 23.8111 20.3313 23.2723 21.8244 22.3068C22.8796 21.6221 23.2444 21.4761 24.0302 21.2853C24.7936 21.1001 25.2707 20.4041 25.1753 19.6351Z" fill="white"/>
</g>
<defs>
<clipPath id="clip0_3_104">
<rect width="29.0748" height="29.0748" fill="white" transform="translate(0.747925 0.691589)"/>
</clipPath>
</defs>
</svg>
