<svg width="30" height="34" viewBox="0 0 30 34" fill="none" xmlns="http://www.w3.org/2000/svg">
<path d="M29.0748 0.753265L26.426 30.4264L14.5196 33.7273L2.64598 30.4311L0 0.753265H29.0748Z" fill="#E44D26"/>
<path d="M14.5374 31.2043L24.1584 28.537L26.4219 3.1799H14.5374V31.2043Z" fill="#F16529"/>
<path d="M9.38825 10.4597H14.5374V6.81976H5.41034L5.49747 7.79629L6.39207 17.8267H14.5374V14.1869H9.72089L9.38825 10.4597Z" fill="#EBEBEB"/>
<path d="M10.2086 19.6468H6.55475L7.06469 25.3619L14.5207 27.4317L14.5374 27.427V23.6401L14.5215 23.6443L10.4677 22.5497L10.2086 19.6468Z" fill="#EBEBEB"/>
<path d="M14.5248 17.8268H19.0069L18.5844 22.5474L14.5248 23.6431V27.4299L21.9868 25.3619L22.0415 24.7469L22.8968 15.1644L22.9856 14.187H14.5248V17.8268Z" fill="white"/>
<path d="M14.5248 10.4508V10.4597H23.3168L23.3899 9.64153L23.5557 7.79629L23.6427 6.81976H14.5248V10.4508Z" fill="white"/>
</svg>
