<svg width="30" height="34" viewBox="0 0 30 34" fill="none" xmlns="http://www.w3.org/2000/svg">
<g clip-path="url(#clip0_3_101)">
<path d="M14.8273 33.5151C14.3758 33.5151 13.9545 33.3947 13.5632 33.184L9.56014 30.8062C8.95818 30.4752 9.25916 30.3548 9.43975 30.2946C10.2524 30.0237 10.4029 29.9635 11.2456 29.4819C11.3359 29.4217 11.4563 29.4518 11.5466 29.512L14.6166 31.348C14.737 31.4082 14.8875 31.4082 14.9778 31.348L26.987 24.3953C27.1073 24.3351 27.1675 24.2148 27.1675 24.0643V10.189C27.1675 10.0385 27.1073 9.91815 26.987 9.85795L14.9778 2.93538C14.8574 2.87518 14.7069 2.87518 14.6166 2.93538L2.60747 9.85795C2.48708 9.91815 2.42688 10.0686 2.42688 10.189V24.0643C2.42688 24.1847 2.48708 24.3351 2.60747 24.3953L5.88817 26.2915C7.66396 27.1945 8.77759 26.141 8.77759 25.0876V11.393C8.77759 11.2124 8.92808 11.0318 9.13877 11.0318H10.6738C10.8544 11.0318 11.0349 11.1823 11.0349 11.393V25.0876C11.0349 27.4654 9.74073 28.8499 7.48337 28.8499C6.79111 28.8499 6.24935 28.8499 4.71434 28.0974L1.55404 26.2915C0.771487 25.8401 0.289917 24.9973 0.289917 24.0944V10.2191C0.289917 9.31618 0.771487 8.47344 1.55404 8.02196L13.5632 1.0693C14.3156 0.647922 15.339 0.647922 16.0914 1.0693L28.1006 8.02196C28.8831 8.47344 29.3647 9.31618 29.3647 10.2191V24.0944C29.3647 24.9973 28.8831 25.8401 28.1006 26.2915L16.0914 33.2442C15.7002 33.4248 15.2487 33.5151 14.8273 33.5151ZM18.5294 23.974C13.2622 23.974 12.1787 21.5661 12.1787 19.5194C12.1787 19.3389 12.3292 19.1583 12.5399 19.1583H14.105C14.2855 19.1583 14.436 19.2787 14.436 19.4593C14.6768 21.0545 15.3691 21.837 18.5595 21.837C21.0877 21.837 22.1713 21.2651 22.1713 19.9107C22.1713 19.1282 21.8703 18.5563 17.9274 18.165C14.6467 17.834 12.6001 17.1116 12.6001 14.4931C12.6001 12.0551 14.6467 10.6104 18.0779 10.6104C21.9305 10.6104 23.8267 11.9347 24.0674 14.8241C24.0674 14.9144 24.0373 15.0047 23.9771 15.095C23.9169 15.1552 23.8267 15.2154 23.7364 15.2154H22.1713C22.0208 15.2154 21.8703 15.095 21.8402 14.9445C21.479 13.2891 20.546 12.7474 18.0779 12.7474C15.3089 12.7474 14.9778 13.7105 14.9778 14.4329C14.9778 15.3057 15.3691 15.5766 19.1012 16.0582C22.8033 16.5397 24.549 17.232 24.549 19.8204C24.5189 22.4691 22.3518 23.974 18.5294 23.974Z" fill="#539E43"/>
</g>
<defs>
<clipPath id="clip0_3_101">
<rect width="29.0748" height="32.8227" fill="white" transform="translate(0.289917 0.753265)"/>
</clipPath>
</defs>
</svg>
